<svg version="1.1" id="Layer_1" xmlns="http://www.w3.org/2000/svg" xmlns:xlink="http://www.w3.org/1999/xlink" x="0px" y="0px"
	 width="100%" viewBox="0 0 192 119" enable-background="new 0 0 192 119" xml:space="preserve">
<path fill="#FFFEFE" opacity="1.000000" stroke="none" 
	d="
M140.000000,120.000000 
	C93.333344,120.000000 47.166695,120.000000 1.000031,120.000000 
	C1.000021,80.333359 1.000021,40.666718 1.000010,1.000058 
	C64.999954,1.000038 128.999908,1.000038 192.999908,1.000019 
	C192.999939,40.666611 192.999939,80.333221 192.999969,119.999916 
	C175.500000,120.000000 158.000000,120.000000 140.000000,120.000000 
M37.675022,114.103683 
	C38.798683,114.191124 39.922340,114.278557 41.936989,114.641800 
	C70.671761,114.709229 99.406517,114.801399 128.141327,114.829033 
	C136.771362,114.837334 145.401550,114.665855 154.500702,114.692673 
	C154.500702,114.692673 154.942474,114.497086 155.625168,114.613998 
	C156.067062,114.498528 156.508942,114.383049 157.545502,114.453331 
	C158.361542,114.283493 159.177567,114.113655 160.744720,113.936829 
	C162.644562,113.323563 164.573013,112.786514 166.439850,112.085358 
	C187.679871,104.107979 194.745453,81.630844 181.649292,63.744808 
	C175.338913,55.126438 166.804001,50.120476 156.280060,48.459198 
	C155.227661,39.608986 151.395477,32.777000 143.467712,28.653883 
	C135.390213,24.452896 127.485992,25.658470 119.828293,29.825464 
	C119.199440,28.765404 118.761261,28.066505 118.361115,27.346474 
	C106.897263,6.718198 86.355606,-0.415596 65.154091,4.945860 
	C46.949257,9.549513 34.198109,25.801821 32.258511,46.333168 
	C31.985132,49.227001 31.104654,50.552898 28.459545,51.795303 
	C14.005733,58.584248 5.432944,77.107033 10.315514,91.565277 
	C14.598305,104.247459 24.483959,110.788376 37.675022,114.103683 
z"/>
<path fill="#F79820" opacity="1.000000" stroke="none" 
	d="
M156.950836,114.267570 
	C156.508942,114.383049 156.067062,114.498528 155.182587,114.455795 
	C154.433243,114.195793 154.197128,114.288849 154.031677,114.576736 
	C145.401550,114.665855 136.771362,114.837334 128.141327,114.829033 
	C99.406517,114.801399 70.671761,114.709229 41.362801,114.234055 
	C39.528130,113.854126 38.267647,113.881943 37.007160,113.909760 
	C24.483959,110.788376 14.598305,104.247459 10.315514,91.565277 
	C5.432944,77.107033 14.005733,58.584248 28.459545,51.795303 
	C31.104654,50.552898 31.985132,49.227001 32.258511,46.333168 
	C34.198109,25.801821 46.949257,9.549513 65.154091,4.945860 
	C86.355606,-0.415596 106.897263,6.718198 118.361115,27.346474 
	C118.761261,28.066505 119.199440,28.765404 119.828293,29.825464 
	C127.485992,25.658470 135.390213,24.452896 143.467712,28.653883 
	C151.395477,32.777000 155.227661,39.608986 156.280060,48.459198 
	C166.804001,50.120476 175.338913,55.126438 181.649292,63.744808 
	C194.745453,81.630844 187.679871,104.107979 166.439850,112.085358 
	C164.573013,112.786514 162.644562,113.323563 160.187073,113.728722 
	C158.736557,113.769600 157.843704,114.018585 156.950836,114.267570 
M111.647736,53.148201 
	C107.610641,53.095699 108.609489,56.561184 108.193558,58.600967 
	C106.797417,65.447823 105.799995,72.375984 104.649963,79.273026 
	C104.006546,79.307137 103.363136,79.341240 102.719719,79.375351 
	C101.125771,70.677742 99.531815,61.980141 97.991219,53.573719 
	C92.654022,52.353191 90.038765,53.202438 89.718590,58.983349 
	C89.379562,65.104675 87.644569,71.148697 86.519295,77.226479 
	C86.047028,77.248123 85.574753,77.269760 85.102486,77.291405 
	C80.921150,69.967972 82.327118,61.070869 79.401985,53.408813 
	C77.248924,53.408813 75.318413,53.408813 73.228622,53.408813 
	C73.171600,54.297577 72.994362,54.959270 73.110153,55.564941 
	C75.511772,68.127396 77.887474,80.695663 80.463898,93.222549 
	C80.730125,94.517014 82.377365,96.616539 83.131203,96.512482 
	C85.193703,96.227768 87.398315,95.296432 88.993652,93.960670 
	C89.885757,93.213737 89.715935,91.159843 89.959999,89.684174 
	C91.153389,82.468643 92.325043,75.249512 93.504372,68.031654 
	C93.922585,68.019295 94.340790,68.006935 94.758995,67.994576 
	C96.045319,75.234512 97.292633,82.481651 98.628548,89.712418 
	C100.065491,97.489990 100.101753,97.483292 107.714920,94.904221 
	C110.220566,82.308876 112.653084,69.593979 115.342567,56.933670 
	C115.949562,54.076351 115.623344,52.763153 111.647736,53.148201 
M58.484619,53.148045 
	C55.196472,52.657249 53.550499,53.689827 52.625576,57.302307 
	C49.579178,69.200600 45.999737,80.961998 42.677917,92.790833 
	C42.353588,93.945770 42.394386,95.203239 42.291939,96.166496 
	C48.780663,97.026131 50.195240,93.142105 51.117210,88.409538 
	C51.359047,87.168159 52.789917,85.425827 53.923508,85.207970 
	C62.165062,83.624069 63.756020,84.748840 65.848938,92.795242 
	C66.176201,94.053467 66.592537,95.288513 67.012726,96.683823 
	C70.041512,96.366730 74.330582,98.074043 72.864906,92.348106 
	C69.734413,80.118332 66.525444,67.906548 63.093296,55.759544 
	C62.772934,54.625729 60.632828,54.006088 58.484619,53.148045 
M132.591446,52.242592 
	C131.771393,52.374981 130.944473,52.474655 130.132385,52.644981 
	C124.007172,53.929688 120.723419,57.000801 119.982361,62.115494 
	C119.064095,68.453323 121.117523,72.378685 127.235626,75.354942 
	C129.934753,76.667984 132.901749,77.423927 135.627411,78.690430 
	C139.124466,80.315376 139.992065,83.682144 138.642212,86.675453 
	C137.779068,88.589500 135.062256,90.325539 132.873825,90.831039 
	C129.526047,91.604309 127.227371,89.515305 126.437836,86.080780 
	C126.153038,84.841911 125.902275,83.595222 125.661552,82.471481 
	C123.347794,82.471481 121.430099,82.471481 119.541985,82.471481 
	C118.973946,91.383347 123.456299,96.265678 132.079758,96.486122 
	C139.330109,96.671463 144.626770,93.148567 145.858795,87.321449 
	C147.440430,79.840630 144.789368,75.233597 137.169586,72.157677 
	C134.556366,71.102791 131.767151,70.303947 129.417709,68.819389 
	C126.209770,66.792358 125.827103,63.034607 127.735641,60.499393 
	C128.997711,58.822926 132.989334,57.653828 134.881180,58.421291 
	C136.891724,59.236897 137.866028,62.606976 139.553375,65.273331 
	C140.766098,65.049049 142.774658,64.677582 144.724335,64.317009 
	C145.081848,56.299236 142.535690,53.644333 132.591446,52.242592 
z"/>
<path fill="#F8A13A" opacity="1.000000" stroke="none" 
	d="
M37.341091,114.006721 
	C38.267647,113.881943 39.528130,113.854126 40.917309,114.096153 
	C39.922340,114.278557 38.798683,114.191124 37.341091,114.006721 
z"/>
<path fill="#F8A13A" opacity="1.000000" stroke="none" 
	d="
M157.248169,114.360451 
	C157.843704,114.018585 158.736557,113.769600 159.811523,113.732216 
	C159.177567,114.113655 158.361542,114.283493 157.248169,114.360451 
z"/>
<path fill="#F8A13A" opacity="1.000000" stroke="none" 
	d="
M154.266190,114.634705 
	C154.197128,114.288849 154.433243,114.195793 154.841248,114.397339 
	C154.942474,114.497086 154.500702,114.692673 154.266190,114.634705 
z"/>
<path fill="#FEF8F2" opacity="1.000000" stroke="none" 
	d="
M112.062515,53.146992 
	C115.623344,52.763153 115.949562,54.076351 115.342567,56.933670 
	C112.653084,69.593979 110.220566,82.308876 107.714920,94.904221 
	C100.101753,97.483292 100.065491,97.489990 98.628548,89.712418 
	C97.292633,82.481651 96.045319,75.234512 94.758995,67.994576 
	C94.340790,68.006935 93.922585,68.019295 93.504372,68.031654 
	C92.325043,75.249512 91.153389,82.468643 89.959999,89.684174 
	C89.715935,91.159843 89.885757,93.213737 88.993652,93.960670 
	C87.398315,95.296432 85.193703,96.227768 83.131203,96.512482 
	C82.377365,96.616539 80.730125,94.517014 80.463898,93.222549 
	C77.887474,80.695663 75.511772,68.127396 73.110153,55.564941 
	C72.994362,54.959270 73.171600,54.297577 73.228622,53.408813 
	C75.318413,53.408813 77.248924,53.408813 79.401985,53.408813 
	C82.327118,61.070869 80.921150,69.967972 85.102486,77.291405 
	C85.574753,77.269760 86.047028,77.248123 86.519295,77.226479 
	C87.644569,71.148697 89.379562,65.104675 89.718590,58.983349 
	C90.038765,53.202438 92.654022,52.353191 97.991219,53.573719 
	C99.531815,61.980141 101.125771,70.677742 102.719719,79.375351 
	C103.363136,79.341240 104.006546,79.307137 104.649963,79.273026 
	C105.799995,72.375984 106.797417,65.447823 108.193558,58.600967 
	C108.609489,56.561184 107.610641,53.095699 112.062515,53.146992 
z"/>
<path fill="#FEF8F3" opacity="1.000000" stroke="none" 
	d="
M58.911129,53.147881 
	C60.632828,54.006088 62.772934,54.625729 63.093296,55.759544 
	C66.525444,67.906548 69.734413,80.118332 72.864906,92.348106 
	C74.330582,98.074043 70.041512,96.366730 67.012726,96.683823 
	C66.592537,95.288513 66.176201,94.053467 65.848938,92.795242 
	C63.756020,84.748840 62.165062,83.624069 53.923508,85.207970 
	C52.789917,85.425827 51.359047,87.168159 51.117210,88.409538 
	C50.195240,93.142105 48.780663,97.026131 42.291939,96.166496 
	C42.394386,95.203239 42.353588,93.945770 42.677917,92.790833 
	C45.999737,80.961998 49.579178,69.200600 52.625576,57.302307 
	C53.550499,53.689827 55.196472,52.657249 58.911129,53.147881 
M62.111328,79.003059 
	C62.111328,79.003059 61.890503,79.067863 62.020863,78.227280 
	C60.888844,72.595436 59.756821,66.963593 58.624798,61.331749 
	C58.200802,61.393353 57.776802,61.454956 57.352802,61.516560 
	C56.089005,67.086006 54.825207,72.655457 53.376965,79.037735 
	C56.766193,79.037735 59.356441,79.037735 62.111328,79.003059 
z"/>
<path fill="#FFF9F5" opacity="1.000000" stroke="none" 
	d="
M132.997589,52.242149 
	C142.535690,53.644333 145.081848,56.299236 144.724335,64.317009 
	C142.774658,64.677582 140.766098,65.049049 139.553375,65.273331 
	C137.866028,62.606976 136.891724,59.236897 134.881180,58.421291 
	C132.989334,57.653828 128.997711,58.822926 127.735641,60.499393 
	C125.827103,63.034607 126.209770,66.792358 129.417709,68.819389 
	C131.767151,70.303947 134.556366,71.102791 137.169586,72.157677 
	C144.789368,75.233597 147.440430,79.840630 145.858795,87.321449 
	C144.626770,93.148567 139.330109,96.671463 132.079758,96.486122 
	C123.456299,96.265678 118.973946,91.383347 119.541985,82.471481 
	C121.430099,82.471481 123.347794,82.471481 125.661552,82.471481 
	C125.902275,83.595222 126.153038,84.841911 126.437836,86.080780 
	C127.227371,89.515305 129.526047,91.604309 132.873825,90.831039 
	C135.062256,90.325539 137.779068,88.589500 138.642212,86.675453 
	C139.992065,83.682144 139.124466,80.315376 135.627411,78.690430 
	C132.901749,77.423927 129.934753,76.667984 127.235626,75.354942 
	C121.117523,72.378685 119.064095,68.453323 119.982361,62.115494 
	C120.723419,57.000801 124.007172,53.929688 130.132385,52.644981 
	C130.944473,52.474655 131.771393,52.374981 132.997589,52.242149 
z"/>
<path fill="#F79B27" opacity="1.000000" stroke="none" 
	d="
M61.946690,79.037735 
	C59.356441,79.037735 56.766193,79.037735 53.376965,79.037735 
	C54.825207,72.655457 56.089005,67.086006 57.352802,61.516560 
	C57.776802,61.454956 58.200802,61.393353 58.624798,61.331749 
	C59.756821,66.963593 60.888844,72.595436 61.973667,78.641235 
	C61.926472,79.055191 61.946690,79.037735 61.946690,79.037735 
z"/>
<path fill="#F79B27" opacity="1.000000" stroke="none" 
	d="
M61.908485,79.061523 
	C61.890503,79.067863 62.111328,79.003059 62.029007,79.020401 
	C61.946690,79.037735 61.926472,79.055191 61.908485,79.061523 
z"/>
</svg>